<svg width="20" height="20" viewBox="0 0 20 20" fill="none" xmlns="http://www.w3.org/2000/svg">
<path d="M2.08398 16.6666C2.08398 13.75 4.58398 11.6666 7.50065 11.6666C10.4173 11.6666 12.9173 13.75 12.9173 16.6666M14.1673 8.74998C14.7199 8.74998 15.2498 8.53049 15.6405 8.13979C16.0312 7.74908 16.2507 7.21918 16.2507 6.66665C16.2507 6.11411 16.0312 5.58421 15.6405 5.19351C15.2498 4.80281 14.7199 4.58331 14.1673 4.58331M13.334 11.6666C15.834 11.9166 17.9173 13.75 17.9173 16.6666M7.50065 9.16665C8.2742 9.16665 9.01606 8.85936 9.56305 8.31237C10.11 7.76539 10.4173 7.02353 10.4173 6.24998C10.4173 5.47643 10.11 4.73457 9.56305 4.18759C9.01606 3.6406 8.2742 3.33331 7.50065 3.33331C6.7271 3.33331 5.98524 3.6406 5.43826 4.18759C4.89128 4.73457 4.58398 5.47643 4.58398 6.24998C4.58398 7.02353 4.89128 7.76539 5.43826 8.31237C5.98524 8.85936 6.7271 9.16665 7.50065 9.16665Z" stroke="#FFB997" stroke-width="1.5" stroke-linecap="round" stroke-linejoin="round"/>
</svg>
