<svg width="34" height="34" viewBox="0 0 34 34" fill="none" xmlns="http://www.w3.org/2000/svg">
<path d="M2.83398 17.0002C2.83398 17.0002 8.50065 7.0835 17.0007 7.0835C25.5007 7.0835 31.1673 17.0002 31.1673 17.0002C31.1673 17.0002 25.5007 26.9168 17.0007 26.9168C8.50065 26.9168 2.83398 17.0002 2.83398 17.0002ZM17.0007 12.7502C15.8735 12.7502 14.7925 13.1979 13.9954 13.995C13.1984 14.792 12.7507 15.873 12.7507 17.0002C12.7507 18.1273 13.1984 19.2083 13.9954 20.0054C14.7925 20.8024 15.8735 21.2502 17.0007 21.2502C18.1278 21.2502 19.2088 20.8024 20.0059 20.0054C20.8029 19.2083 21.2507 18.1273 21.2507 17.0002C21.2507 15.873 20.8029 14.792 20.0059 13.995C19.2088 13.1979 18.1278 12.7502 17.0007 12.7502Z" stroke="#A9D4B3" stroke-width="2.55" stroke-linecap="round" stroke-linejoin="round"/>
</svg>
