<svg width="20" height="20" viewBox="0 0 20 20" fill="none" xmlns="http://www.w3.org/2000/svg">
<path d="M3.33301 9.99999C3.38066 8.66645 3.82741 7.37789 4.61544 6.30104C5.40347 5.22419 6.49653 4.4086 7.75318 3.9598C9.00983 3.51099 10.3723 3.44963 11.6642 3.78364C12.9561 4.11766 14.118 4.83168 14.9997 5.83332L16.6663 4.16665V9.16665H11.6663L13.333 7.49999C12.8083 6.80038 12.0768 6.2836 11.242 6.02285C10.4073 5.7621 9.51169 5.7706 8.68206 6.04714C7.85243 6.32368 7.13083 6.85425 6.6195 7.56369C6.10816 8.27313 5.83301 9.12548 5.83301 9.99999M16.6663 9.99999C16.6187 11.3335 16.1719 12.6221 15.3839 13.6989C14.5959 14.7758 13.5028 15.5914 12.2462 16.0402C10.9895 16.489 9.6271 16.5503 8.33519 16.2163C7.04328 15.8823 5.88133 15.1683 4.99967 14.1667L3.33301 15.8333V10.8333H8.33301L6.66634 12.5C7.19105 13.1996 7.92258 13.7164 8.75731 13.9771C9.59204 14.2379 10.4877 14.2294 11.3173 13.9528C12.1469 13.6763 12.8685 13.1457 13.3799 12.4363C13.8912 11.7268 14.1663 10.8745 14.1663 9.99999" stroke="white" stroke-width="1.5" stroke-linecap="round" stroke-linejoin="round"/>
</svg>
